<?xml version="1.0" encoding="UTF-8"?>
<svg xmlns="http://www.w3.org/2000/svg" xmlns:xlink="http://www.w3.org/1999/xlink" width="32px" height="32px" viewBox="0 0 32 32" version="1.1">
<defs>
<filter id="alpha" filterUnits="objectBoundingBox" x="0%" y="0%" width="100%" height="100%">
  <feColorMatrix type="matrix" in="SourceGraphic" values="0 0 0 0 1 0 0 0 0 1 0 0 0 0 1 0 0 0 1 0"/>
</filter>
<mask id="mask0">
  <g filter="url(#alpha)">
<rect x="0" y="0" width="32" height="32" style="fill:rgb(0%,0%,0%);fill-opacity:0.988235;stroke:none;"/>
  </g>
</mask>
<clipPath id="clip1">
  <rect x="0" y="0" width="32" height="32"/>
</clipPath>
<g id="surface5" clip-path="url(#clip1)">
<path style=" stroke:none;fill-rule:evenodd;fill:rgb(99.607843%,86.666667%,47.45098%);fill-opacity:1;" d="M 14.59375 -0.03125 C 15.511719 -0.03125 16.425781 -0.03125 17.34375 -0.03125 C 23.613281 0.75 28.082031 4 30.75 9.71875 C 31.402344 11.257812 31.785156 12.863281 31.90625 14.53125 C 29.730469 12.386719 27.566406 10.230469 25.40625 8.0625 C 25.367188 8.035156 25.328125 8.023438 25.28125 8.03125 C 22.820312 5.238281 19.714844 3.800781 15.96875 3.71875 C 11.242188 3.890625 7.667969 5.992188 5.25 10.03125 C 3.144531 14.179688 3.226562 18.28125 5.5 22.34375 C 6.203125 23.480469 7.070312 24.480469 8.09375 25.34375 C 8.085938 25.390625 8.097656 25.429688 8.125 25.46875 C 10.273438 27.605469 12.410156 29.753906 14.53125 31.90625 C 8.914062 31.277344 4.695312 28.527344 1.875 23.65625 C 0.820312 21.671875 0.1875 19.566406 -0.03125 17.34375 C -0.03125 16.425781 -0.03125 15.511719 -0.03125 14.59375 C 0.75 8.324219 4 3.855469 9.71875 1.1875 C 11.292969 0.542969 12.917969 0.136719 14.59375 -0.03125 Z M 14.59375 -0.03125 "/>
</g>
</defs>
<g id="surface1">
<use xlink:href="#surface5" mask="url(#mask0)"/>
<path style=" stroke:none;fill-rule:evenodd;fill:rgb(1.176471%,28.235294%,34.901961%);fill-opacity:1;" d="M 15.96875 3.71875 C 15.96875 4.199219 15.96875 4.675781 15.96875 5.15625 C 15.675781 5.15625 15.386719 5.15625 15.09375 5.15625 C 15.160156 5.632812 15.222656 6.113281 15.28125 6.59375 C 14.804688 6.660156 14.324219 6.722656 13.84375 6.78125 C 13.804688 6.363281 13.75 5.945312 13.6875 5.53125 C 13.664062 5.472656 13.621094 5.429688 13.5625 5.40625 C 12.980469 5.542969 12.417969 5.730469 11.875 5.96875 C 11.996094 6.398438 12.171875 6.816406 12.40625 7.21875 C 11.988281 7.449219 11.574219 7.675781 11.15625 7.90625 C 10.925781 7.488281 10.699219 7.074219 10.46875 6.65625 C 10.023438 6.945312 9.585938 7.25 9.15625 7.5625 C 9.042969 7.632812 8.988281 7.726562 9 7.84375 C 9.246094 8.152344 9.519531 8.445312 9.8125 8.71875 C 9.855469 8.761719 9.855469 8.800781 9.8125 8.84375 C 9.5 9.15625 9.1875 9.46875 8.875 9.78125 C 8.574219 9.480469 8.269531 9.175781 7.96875 8.875 C 7.828125 8.886719 7.714844 8.960938 7.625 9.09375 C 7.304688 9.472656 7.023438 9.878906 6.78125 10.3125 C 6.789062 10.359375 6.8125 10.402344 6.84375 10.4375 C 7.230469 10.621094 7.605469 10.816406 7.96875 11.03125 C 7.738281 11.449219 7.511719 11.863281 7.28125 12.28125 C 6.894531 12.058594 6.5 11.847656 6.09375 11.65625 C 5.773438 12.242188 5.566406 12.867188 5.46875 13.53125 C 5.9375 13.5625 6.394531 13.644531 6.84375 13.78125 C 6.753906 14.195312 6.667969 14.613281 6.59375 15.03125 C 6.128906 15.082031 5.671875 15.039062 5.21875 14.90625 C 5.15625 15.550781 5.136719 16.195312 5.15625 16.84375 C 5.59375 16.789062 6.03125 16.726562 6.46875 16.65625 C 6.511719 16.675781 6.550781 16.699219 6.59375 16.71875 C 6.6875 17.171875 6.75 17.628906 6.78125 18.09375 C 6.316406 18.128906 5.859375 18.203125 5.40625 18.3125 C 5.558594 18.894531 5.746094 19.46875 5.96875 20.03125 C 6.023438 20.097656 6.085938 20.109375 6.15625 20.0625 C 6.511719 19.886719 6.863281 19.707031 7.21875 19.53125 C 7.449219 19.949219 7.675781 20.363281 7.90625 20.78125 C 7.488281 21.011719 7.074219 21.238281 6.65625 21.46875 C 6.945312 21.914062 7.25 22.351562 7.5625 22.78125 C 7.632812 22.894531 7.726562 22.949219 7.84375 22.9375 C 8.152344 22.691406 8.445312 22.417969 8.71875 22.125 C 8.761719 22.082031 8.800781 22.082031 8.84375 22.125 C 9.15625 22.4375 9.46875 22.75 9.78125 23.0625 C 9.449219 23.394531 9.113281 23.730469 8.78125 24.0625 C 9.273438 24.453125 9.785156 24.816406 10.3125 25.15625 C 10.359375 25.148438 10.402344 25.125 10.4375 25.09375 C 10.621094 24.707031 10.816406 24.332031 11.03125 23.96875 C 11.449219 24.199219 11.863281 24.425781 12.28125 24.65625 C 12.058594 25.042969 11.847656 25.4375 11.65625 25.84375 C 12.242188 26.164062 12.867188 26.371094 13.53125 26.46875 C 13.535156 25.992188 13.617188 25.53125 13.78125 25.09375 C 14.195312 25.183594 14.613281 25.269531 15.03125 25.34375 C 15.050781 25.40625 15.074219 25.46875 15.09375 25.53125 C 15.035156 25.929688 14.972656 26.324219 14.90625 26.71875 C 15.257812 26.765625 15.613281 26.785156 15.96875 26.78125 C 15.96875 27.261719 15.96875 27.738281 15.96875 28.21875 C 12.996094 28.1875 10.371094 27.226562 8.09375 25.34375 C 7.070312 24.480469 6.203125 23.480469 5.5 22.34375 C 3.226562 18.28125 3.144531 14.179688 5.25 10.03125 C 7.667969 5.992188 11.242188 3.890625 15.96875 3.71875 Z M 15.96875 3.71875 "/>
<path style=" stroke:none;fill-rule:evenodd;fill:rgb(0.784314%,1.960784%,3.529412%);fill-opacity:1;" d="M 15.96875 3.71875 C 19.714844 3.800781 22.820312 5.238281 25.28125 8.03125 C 27.644531 10.859375 28.570312 14.109375 28.0625 17.78125 C 27.429688 21.515625 25.523438 24.402344 22.34375 26.4375 C 20.371094 27.578125 18.246094 28.171875 15.96875 28.21875 C 15.96875 27.738281 15.96875 27.261719 15.96875 26.78125 C 16.261719 26.785156 16.554688 26.765625 16.84375 26.71875 C 16.808594 26.289062 16.746094 25.859375 16.65625 25.4375 C 16.675781 25.40625 16.699219 25.375 16.71875 25.34375 C 17.171875 25.25 17.628906 25.1875 18.09375 25.15625 C 18.144531 25.617188 18.21875 26.074219 18.3125 26.53125 C 18.945312 26.378906 19.558594 26.171875 20.15625 25.90625 C 19.933594 25.519531 19.722656 25.125 19.53125 24.71875 C 19.925781 24.457031 20.34375 24.230469 20.78125 24.03125 C 21.011719 24.449219 21.238281 24.863281 21.46875 25.28125 C 21.9375 24.972656 22.394531 24.652344 22.84375 24.3125 C 22.9375 24.261719 22.96875 24.1875 22.9375 24.09375 C 22.691406 23.785156 22.417969 23.492188 22.125 23.21875 C 22.082031 23.175781 22.082031 23.136719 22.125 23.09375 C 22.4375 22.78125 22.75 22.46875 23.0625 22.15625 C 23.363281 22.457031 23.667969 22.761719 23.96875 23.0625 C 24.109375 23.050781 24.222656 22.976562 24.3125 22.84375 C 24.632812 22.464844 24.914062 22.058594 25.15625 21.625 C 25.148438 21.578125 25.125 21.535156 25.09375 21.5 C 24.707031 21.316406 24.332031 21.121094 23.96875 20.90625 C 24.167969 20.46875 24.394531 20.054688 24.65625 19.65625 C 25.042969 19.878906 25.4375 20.089844 25.84375 20.28125 C 26.140625 19.6875 26.347656 19.0625 26.46875 18.40625 C 26.023438 18.390625 25.585938 18.328125 25.15625 18.21875 C 25.136719 18.175781 25.113281 18.136719 25.09375 18.09375 C 25.183594 17.679688 25.246094 17.265625 25.28125 16.84375 C 25.761719 16.886719 26.242188 16.949219 26.71875 17.03125 C 26.769531 16.386719 26.789062 15.742188 26.78125 15.09375 C 26.296875 15.132812 25.820312 15.195312 25.34375 15.28125 C 25.277344 14.804688 25.214844 14.324219 25.15625 13.84375 C 25.621094 13.800781 26.078125 13.71875 26.53125 13.59375 C 26.398438 12.964844 26.1875 12.359375 25.90625 11.78125 C 25.519531 12.003906 25.125 12.214844 24.71875 12.40625 C 24.492188 11.992188 24.261719 11.578125 24.03125 11.15625 C 24.449219 10.925781 24.863281 10.699219 25.28125 10.46875 C 24.972656 10 24.652344 9.542969 24.3125 9.09375 C 24.261719 9 24.1875 8.96875 24.09375 9 C 23.785156 9.246094 23.492188 9.519531 23.21875 9.8125 C 23.175781 9.855469 23.136719 9.855469 23.09375 9.8125 C 22.78125 9.5 22.46875 9.1875 22.15625 8.875 C 22.457031 8.574219 22.761719 8.269531 23.0625 7.96875 C 23.050781 7.828125 22.976562 7.714844 22.84375 7.625 C 22.464844 7.304688 22.058594 7.023438 21.625 6.78125 C 21.578125 6.789062 21.535156 6.8125 21.5 6.84375 C 21.316406 7.230469 21.121094 7.605469 20.90625 7.96875 C 20.46875 7.769531 20.054688 7.542969 19.65625 7.28125 C 19.878906 6.894531 20.089844 6.5 20.28125 6.09375 C 19.6875 5.796875 19.0625 5.589844 18.40625 5.46875 C 18.34375 5.925781 18.28125 6.386719 18.21875 6.84375 C 17.761719 6.777344 17.300781 6.703125 16.84375 6.625 C 16.8125 6.589844 16.789062 6.546875 16.78125 6.5 C 16.859375 6.078125 16.941406 5.664062 17.03125 5.25 C 16.683594 5.167969 16.328125 5.136719 15.96875 5.15625 C 15.96875 4.675781 15.96875 4.199219 15.96875 3.71875 Z M 15.96875 3.71875 "/>
<path style=" stroke:none;fill-rule:evenodd;fill:rgb(0.392157%,41.176471%,50.588235%);fill-opacity:1;" d="M 15.96875 5.15625 C 15.96875 6.824219 15.96875 8.488281 15.96875 10.15625 C 16.109375 10.136719 16.234375 10.160156 16.34375 10.21875 C 16.21875 10.21875 16.09375 10.21875 15.96875 10.21875 C 13.46875 10.289062 11.6875 11.457031 10.625 13.71875 C 9.640625 16.609375 10.359375 18.976562 12.78125 20.8125 C 13.746094 21.453125 14.808594 21.757812 15.96875 21.71875 C 16.09375 21.71875 16.21875 21.71875 16.34375 21.71875 C 16.234375 21.777344 16.109375 21.800781 15.96875 21.78125 C 15.96875 23.449219 15.96875 25.113281 15.96875 26.78125 C 15.613281 26.785156 15.257812 26.765625 14.90625 26.71875 C 14.972656 26.324219 15.035156 25.929688 15.09375 25.53125 C 15.074219 25.46875 15.050781 25.40625 15.03125 25.34375 C 14.613281 25.269531 14.195312 25.183594 13.78125 25.09375 C 13.617188 25.53125 13.535156 25.992188 13.53125 26.46875 C 12.867188 26.371094 12.242188 26.164062 11.65625 25.84375 C 11.847656 25.4375 12.058594 25.042969 12.28125 24.65625 C 11.863281 24.425781 11.449219 24.199219 11.03125 23.96875 C 10.816406 24.332031 10.621094 24.707031 10.4375 25.09375 C 10.402344 25.125 10.359375 25.148438 10.3125 25.15625 C 9.785156 24.816406 9.273438 24.453125 8.78125 24.0625 C 9.113281 23.730469 9.449219 23.394531 9.78125 23.0625 C 9.46875 22.75 9.15625 22.4375 8.84375 22.125 C 8.800781 22.082031 8.761719 22.082031 8.71875 22.125 C 8.445312 22.417969 8.152344 22.691406 7.84375 22.9375 C 7.726562 22.949219 7.632812 22.894531 7.5625 22.78125 C 7.25 22.351562 6.945312 21.914062 6.65625 21.46875 C 7.074219 21.238281 7.488281 21.011719 7.90625 20.78125 C 7.675781 20.363281 7.449219 19.949219 7.21875 19.53125 C 6.863281 19.707031 6.511719 19.886719 6.15625 20.0625 C 6.085938 20.109375 6.023438 20.097656 5.96875 20.03125 C 5.746094 19.46875 5.558594 18.894531 5.40625 18.3125 C 5.859375 18.203125 6.316406 18.128906 6.78125 18.09375 C 6.75 17.628906 6.6875 17.171875 6.59375 16.71875 C 6.550781 16.699219 6.511719 16.675781 6.46875 16.65625 C 6.03125 16.726562 5.59375 16.789062 5.15625 16.84375 C 5.136719 16.195312 5.15625 15.550781 5.21875 14.90625 C 5.671875 15.039062 6.128906 15.082031 6.59375 15.03125 C 6.667969 14.613281 6.753906 14.195312 6.84375 13.78125 C 6.394531 13.644531 5.9375 13.5625 5.46875 13.53125 C 5.566406 12.867188 5.773438 12.242188 6.09375 11.65625 C 6.5 11.847656 6.894531 12.058594 7.28125 12.28125 C 7.511719 11.863281 7.738281 11.449219 7.96875 11.03125 C 7.605469 10.816406 7.230469 10.621094 6.84375 10.4375 C 6.8125 10.402344 6.789062 10.359375 6.78125 10.3125 C 7.023438 9.878906 7.304688 9.472656 7.625 9.09375 C 7.714844 8.960938 7.828125 8.886719 7.96875 8.875 C 8.269531 9.175781 8.574219 9.480469 8.875 9.78125 C 9.1875 9.46875 9.5 9.15625 9.8125 8.84375 C 9.855469 8.800781 9.855469 8.761719 9.8125 8.71875 C 9.519531 8.445312 9.246094 8.152344 9 7.84375 C 8.988281 7.726562 9.042969 7.632812 9.15625 7.5625 C 9.585938 7.25 10.023438 6.945312 10.46875 6.65625 C 10.699219 7.074219 10.925781 7.488281 11.15625 7.90625 C 11.574219 7.675781 11.988281 7.449219 12.40625 7.21875 C 12.171875 6.816406 11.996094 6.398438 11.875 5.96875 C 12.417969 5.730469 12.980469 5.542969 13.5625 5.40625 C 13.621094 5.429688 13.664062 5.472656 13.6875 5.53125 C 13.75 5.945312 13.804688 6.363281 13.84375 6.78125 C 14.324219 6.722656 14.804688 6.660156 15.28125 6.59375 C 15.222656 6.113281 15.160156 5.632812 15.09375 5.15625 C 15.386719 5.15625 15.675781 5.15625 15.96875 5.15625 Z M 15.96875 5.15625 "/>
<path style=" stroke:none;fill-rule:evenodd;fill:rgb(0.392157%,14.901961%,19.215686%);fill-opacity:1;" d="M 15.96875 5.15625 C 16.328125 5.136719 16.683594 5.167969 17.03125 5.25 C 16.941406 5.664062 16.859375 6.078125 16.78125 6.5 C 16.789062 6.546875 16.8125 6.589844 16.84375 6.625 C 17.300781 6.703125 17.761719 6.777344 18.21875 6.84375 C 18.28125 6.386719 18.34375 5.925781 18.40625 5.46875 C 19.0625 5.589844 19.6875 5.796875 20.28125 6.09375 C 20.089844 6.5 19.878906 6.894531 19.65625 7.28125 C 20.054688 7.542969 20.46875 7.769531 20.90625 7.96875 C 21.121094 7.605469 21.316406 7.230469 21.5 6.84375 C 21.535156 6.8125 21.578125 6.789062 21.625 6.78125 C 22.058594 7.023438 22.464844 7.304688 22.84375 7.625 C 22.976562 7.714844 23.050781 7.828125 23.0625 7.96875 C 22.761719 8.269531 22.457031 8.574219 22.15625 8.875 C 22.46875 9.1875 22.78125 9.5 23.09375 9.8125 C 23.136719 9.855469 23.175781 9.855469 23.21875 9.8125 C 23.492188 9.519531 23.785156 9.246094 24.09375 9 C 24.1875 8.96875 24.261719 9 24.3125 9.09375 C 24.652344 9.542969 24.972656 10 25.28125 10.46875 C 24.863281 10.699219 24.449219 10.925781 24.03125 11.15625 C 24.261719 11.578125 24.492188 11.992188 24.71875 12.40625 C 25.125 12.214844 25.519531 12.003906 25.90625 11.78125 C 26.1875 12.359375 26.398438 12.964844 26.53125 13.59375 C 26.078125 13.71875 25.621094 13.800781 25.15625 13.84375 C 25.214844 14.324219 25.277344 14.804688 25.34375 15.28125 C 25.820312 15.195312 26.296875 15.132812 26.78125 15.09375 C 26.789062 15.742188 26.769531 16.386719 26.71875 17.03125 C 26.242188 16.949219 25.761719 16.886719 25.28125 16.84375 C 25.246094 17.265625 25.183594 17.679688 25.09375 18.09375 C 25.113281 18.136719 25.136719 18.175781 25.15625 18.21875 C 25.585938 18.328125 26.023438 18.390625 26.46875 18.40625 C 26.347656 19.0625 26.140625 19.6875 25.84375 20.28125 C 25.4375 20.089844 25.042969 19.878906 24.65625 19.65625 C 24.394531 20.054688 24.167969 20.46875 23.96875 20.90625 C 24.332031 21.121094 24.707031 21.316406 25.09375 21.5 C 25.125 21.535156 25.148438 21.578125 25.15625 21.625 C 24.914062 22.058594 24.632812 22.464844 24.3125 22.84375 C 24.222656 22.976562 24.109375 23.050781 23.96875 23.0625 C 23.667969 22.761719 23.363281 22.457031 23.0625 22.15625 C 22.75 22.46875 22.4375 22.78125 22.125 23.09375 C 22.082031 23.136719 22.082031 23.175781 22.125 23.21875 C 22.417969 23.492188 22.691406 23.785156 22.9375 24.09375 C 22.96875 24.1875 22.9375 24.261719 22.84375 24.3125 C 22.394531 24.652344 21.9375 24.972656 21.46875 25.28125 C 21.238281 24.863281 21.011719 24.449219 20.78125 24.03125 C 20.34375 24.230469 19.925781 24.457031 19.53125 24.71875 C 19.722656 25.125 19.933594 25.519531 20.15625 25.90625 C 19.558594 26.171875 18.945312 26.378906 18.3125 26.53125 C 18.21875 26.074219 18.144531 25.617188 18.09375 25.15625 C 17.628906 25.1875 17.171875 25.25 16.71875 25.34375 C 16.699219 25.375 16.675781 25.40625 16.65625 25.4375 C 16.746094 25.859375 16.808594 26.289062 16.84375 26.71875 C 16.554688 26.765625 16.261719 26.785156 15.96875 26.78125 C 15.96875 25.113281 15.96875 23.449219 15.96875 21.78125 C 16.109375 21.800781 16.234375 21.777344 16.34375 21.71875 C 18.386719 21.546875 19.9375 20.589844 21 18.84375 C 22.351562 16.058594 21.902344 13.609375 19.65625 11.5 C 18.6875 10.726562 17.585938 10.296875 16.34375 10.21875 C 16.234375 10.160156 16.109375 10.136719 15.96875 10.15625 C 15.96875 8.488281 15.96875 6.824219 15.96875 5.15625 Z M 15.96875 5.15625 "/>
<path style=" stroke:none;fill-rule:evenodd;fill:rgb(99.607843%,66.666667%,21.568627%);fill-opacity:1;" d="M 25.28125 8.03125 C 25.328125 8.023438 25.367188 8.035156 25.40625 8.0625 C 27.566406 10.230469 29.730469 12.386719 31.90625 14.53125 C 31.925781 14.53125 31.949219 14.53125 31.96875 14.53125 C 31.96875 15.46875 31.96875 16.40625 31.96875 17.34375 C 31.1875 23.613281 27.9375 28.082031 22.21875 30.75 C 20.644531 31.394531 19.019531 31.800781 17.34375 31.96875 C 16.40625 31.96875 15.46875 31.96875 14.53125 31.96875 C 14.53125 31.949219 14.53125 31.925781 14.53125 31.90625 C 12.410156 29.753906 10.273438 27.605469 8.125 25.46875 C 8.097656 25.429688 8.085938 25.390625 8.09375 25.34375 C 10.371094 27.226562 12.996094 28.1875 15.96875 28.21875 C 18.246094 28.171875 20.371094 27.578125 22.34375 26.4375 C 25.523438 24.402344 27.429688 21.515625 28.0625 17.78125 C 28.570312 14.109375 27.644531 10.859375 25.28125 8.03125 Z M 25.28125 8.03125 "/>
<path style=" stroke:none;fill-rule:evenodd;fill:rgb(35.686275%,88.627451%,99.607843%);fill-opacity:1;" d="M 15.96875 10.21875 C 15.96875 11.425781 15.96875 12.636719 15.96875 13.84375 C 14.65625 13.949219 13.949219 14.65625 13.84375 15.96875 C 13.949219 17.28125 14.65625 17.988281 15.96875 18.09375 C 15.96875 19.300781 15.96875 20.511719 15.96875 21.71875 C 14.808594 21.757812 13.746094 21.453125 12.78125 20.8125 C 10.359375 18.976562 9.640625 16.609375 10.625 13.71875 C 11.6875 11.457031 13.46875 10.289062 15.96875 10.21875 Z M 15.96875 10.21875 "/>
<path style=" stroke:none;fill-rule:evenodd;fill:rgb(0%,80.784314%,97.647059%);fill-opacity:1;" d="M 15.96875 10.21875 C 16.09375 10.21875 16.21875 10.21875 16.34375 10.21875 C 17.585938 10.296875 18.6875 10.726562 19.65625 11.5 C 21.902344 13.609375 22.351562 16.058594 21 18.84375 C 19.9375 20.589844 18.386719 21.546875 16.34375 21.71875 C 16.21875 21.71875 16.09375 21.71875 15.96875 21.71875 C 15.96875 20.511719 15.96875 19.300781 15.96875 18.09375 C 17.296875 17.984375 18.003906 17.265625 18.09375 15.9375 C 17.976562 14.644531 17.269531 13.945312 15.96875 13.84375 C 15.96875 12.636719 15.96875 11.425781 15.96875 10.21875 Z M 15.96875 10.21875 "/>
<path style=" stroke:none;fill-rule:evenodd;fill:rgb(99.607843%,99.607843%,100%);fill-opacity:1;" d="M 15.96875 13.84375 C 15.96875 15.261719 15.96875 16.675781 15.96875 18.09375 C 14.65625 17.988281 13.949219 17.28125 13.84375 15.96875 C 13.949219 14.65625 14.65625 13.949219 15.96875 13.84375 Z M 15.96875 13.84375 "/>
<path style=" stroke:none;fill-rule:evenodd;fill:rgb(66.27451%,93.333333%,98.823529%);fill-opacity:1;" d="M 15.96875 13.84375 C 17.269531 13.945312 17.976562 14.644531 18.09375 15.9375 C 18.003906 17.265625 17.296875 17.984375 15.96875 18.09375 C 15.96875 16.675781 15.96875 15.261719 15.96875 13.84375 Z M 15.96875 13.84375 "/>
</g>
</svg>
