<?xml version="1.0" encoding="UTF-8"?>
<!DOCTYPE svg PUBLIC "-//W3C//DTD SVG 1.1//EN" "http://www.w3.org/Graphics/SVG/1.1/DTD/svg11.dtd">
<svg xmlns="http://www.w3.org/2000/svg" version="1.1" width="512px" height="512px" style="shape-rendering:geometricPrecision; text-rendering:geometricPrecision; image-rendering:optimizeQuality; fill-rule:evenodd; clip-rule:evenodd" xmlns:xlink="http://www.w3.org/1999/xlink">
<g><path style="opacity:0.988" fill="#fedd79" d="M 233.5,-0.5 C 248.167,-0.5 262.833,-0.5 277.5,-0.5C 377.805,11.9821 449.305,63.9821 492,155.5C 502.414,180.154 508.58,205.821 510.5,232.5C 475.701,198.201 441.035,163.701 406.5,129C 405.906,128.536 405.239,128.369 404.5,128.5C 365.117,83.7941 315.45,60.7941 255.5,59.5C 179.845,62.2286 122.679,95.8952 84,160.5C 50.3077,226.847 51.6411,292.514 88,357.5C 99.2614,375.666 113.095,391.666 129.5,405.5C 129.369,406.239 129.536,406.906 130,407.5C 164.368,441.701 198.535,476.035 232.5,510.5C 142.638,500.417 75.1382,456.417 30,378.5C 13.1449,346.722 2.97822,313.055 -0.5,277.5C -0.5,262.833 -0.5,248.167 -0.5,233.5C 11.9821,133.195 63.9821,61.6947 155.5,19C 180.687,8.70332 206.687,2.20332 233.5,-0.5 Z"/></g>
<g><path style="opacity:1" fill="#034859" d="M 255.5,59.5 C 255.5,67.1667 255.5,74.8333 255.5,82.5C 250.833,82.5 246.167,82.5 241.5,82.5C 242.582,90.1533 243.582,97.8199 244.5,105.5C 236.849,106.593 229.183,107.593 221.5,108.5C 220.865,101.819 220.031,95.1521 219,88.5C 218.612,87.572 217.945,86.9054 217,86.5C 207.71,88.7077 198.71,91.7077 190,95.5C 191.942,102.402 194.775,109.069 198.5,115.5C 191.833,119.167 185.167,122.833 178.5,126.5C 174.833,119.833 171.167,113.167 167.5,106.5C 160.362,111.138 153.362,115.972 146.5,121C 144.671,122.113 143.837,123.613 144,125.5C 147.966,130.467 152.299,135.134 157,139.5C 157.667,140.167 157.667,140.833 157,141.5C 152,146.5 147,151.5 142,156.5C 137.167,151.667 132.333,146.833 127.5,142C 125.255,142.195 123.422,143.362 122,145.5C 116.878,151.581 112.378,158.081 108.5,165C 108.645,165.772 108.978,166.439 109.5,167C 115.658,169.912 121.658,173.079 127.5,176.5C 123.833,183.167 120.167,189.833 116.5,196.5C 110.325,192.912 103.991,189.578 97.5,186.5C 92.3696,195.891 89.0362,205.891 87.5,216.5C 95.0052,216.973 102.339,218.306 109.5,220.5C 108.038,227.144 106.705,233.81 105.5,240.5C 98.0778,241.287 90.7445,240.62 83.5,238.5C 82.5014,248.812 82.1681,259.145 82.5,269.5C 89.5104,268.632 96.5104,267.632 103.5,266.5C 104.167,266.833 104.833,267.167 105.5,267.5C 107.017,274.756 108.017,282.089 108.5,289.5C 101.054,290.09 93.7207,291.257 86.5,293C 88.9571,302.322 91.9571,311.489 95.5,320.5C 96.365,321.583 97.365,321.749 98.5,321C 104.167,318.167 109.833,315.333 115.5,312.5C 119.167,319.167 122.833,325.833 126.5,332.5C 119.833,336.167 113.167,339.833 106.5,343.5C 111.138,350.638 115.972,357.638 121,364.5C 122.113,366.329 123.613,367.163 125.5,367C 130.467,363.034 135.134,358.701 139.5,354C 140.167,353.333 140.833,353.333 141.5,354C 146.5,359 151.5,364 156.5,369C 151.167,374.333 145.833,379.667 140.5,385C 148.399,391.236 156.566,397.069 165,402.5C 165.772,402.355 166.439,402.022 167,401.5C 169.912,395.342 173.079,389.342 176.5,383.5C 183.167,387.167 189.833,390.833 196.5,394.5C 192.912,400.675 189.578,407.009 186.5,413.5C 195.877,418.626 205.877,421.959 216.5,423.5C 216.551,415.856 217.884,408.523 220.5,401.5C 227.144,402.962 233.81,404.295 240.5,405.5C 240.833,406.5 241.167,407.5 241.5,408.5C 240.592,414.86 239.592,421.193 238.5,427.5C 244.138,428.22 249.804,428.553 255.5,428.5C 255.5,436.167 255.5,443.833 255.5,451.5C 207.936,450.983 165.936,435.649 129.5,405.5C 113.095,391.666 99.2614,375.666 88,357.5C 51.6411,292.514 50.3077,226.847 84,160.5C 122.679,95.8952 179.845,62.2286 255.5,59.5 Z"/></g>
<g><path style="opacity:1" fill="#020509" d="M 255.5,59.5 C 315.45,60.7941 365.117,83.7941 404.5,128.5C 442.293,173.739 457.127,225.739 449,284.5C 438.854,344.278 408.354,390.444 357.5,423C 325.961,441.219 291.961,450.719 255.5,451.5C 255.5,443.833 255.5,436.167 255.5,428.5C 260.203,428.563 264.87,428.229 269.5,427.5C 268.955,420.605 267.955,413.772 266.5,407C 266.833,406.5 267.167,406 267.5,405.5C 274.756,403.983 282.089,402.983 289.5,402.5C 290.34,409.876 291.506,417.209 293,424.5C 303.128,422.069 312.961,418.735 322.5,414.5C 318.912,408.325 315.578,401.991 312.5,395.5C 318.811,391.341 325.477,387.675 332.5,384.5C 336.167,391.167 339.833,397.833 343.5,404.5C 351.009,399.579 358.342,394.413 365.5,389C 367.007,388.163 367.507,386.996 367,385.5C 363.034,380.533 358.701,375.866 354,371.5C 353.333,370.833 353.333,370.167 354,369.5C 359,364.5 364,359.5 369,354.5C 373.833,359.333 378.667,364.167 383.5,369C 385.745,368.805 387.578,367.638 389,365.5C 394.122,359.419 398.622,352.919 402.5,346C 402.355,345.228 402.022,344.561 401.5,344C 395.342,341.088 389.342,337.921 383.5,334.5C 386.659,327.512 390.326,320.846 394.5,314.5C 400.675,318.088 407.009,321.422 413.5,324.5C 418.233,314.969 421.566,304.969 423.5,294.5C 416.385,294.259 409.385,293.259 402.5,291.5C 402.167,290.833 401.833,290.167 401.5,289.5C 402.935,282.891 403.935,276.224 404.5,269.5C 412.21,270.174 419.877,271.174 427.5,272.5C 428.305,262.188 428.638,251.854 428.5,241.5C 420.781,242.11 413.115,243.11 405.5,244.5C 404.418,236.844 403.418,229.177 402.5,221.5C 409.944,220.811 417.277,219.478 424.5,217.5C 422.358,207.408 419.025,197.741 414.5,188.5C 408.325,192.088 401.991,195.422 395.5,198.5C 391.863,191.9 388.197,185.233 384.5,178.5C 391.167,174.833 397.833,171.167 404.5,167.5C 399.579,159.991 394.413,152.658 389,145.5C 388.163,143.993 386.996,143.493 385.5,144C 380.533,147.966 375.866,152.299 371.5,157C 370.833,157.667 370.167,157.667 369.5,157C 364.5,152 359.5,147 354.5,142C 359.333,137.167 364.167,132.333 369,127.5C 368.805,125.255 367.638,123.422 365.5,122C 359.419,116.878 352.919,112.378 346,108.5C 345.228,108.645 344.561,108.978 344,109.5C 341.088,115.658 337.921,121.658 334.5,127.5C 327.512,124.341 320.846,120.674 314.5,116.5C 318.088,110.325 321.422,103.991 324.5,97.5C 314.969,92.7674 304.969,89.4341 294.5,87.5C 293.501,94.8307 292.501,102.164 291.5,109.5C 284.16,108.443 276.827,107.277 269.5,106C 268.978,105.439 268.645,104.772 268.5,104C 269.731,97.2764 271.064,90.6097 272.5,84C 266.912,82.7111 261.245,82.2111 255.5,82.5C 255.5,74.8333 255.5,67.1667 255.5,59.5 Z"/></g>
<g><path style="opacity:1" fill="#016981" d="M 255.5,82.5 C 255.5,109.167 255.5,135.833 255.5,162.5C 257.735,162.205 259.735,162.539 261.5,163.5C 259.5,163.5 257.5,163.5 255.5,163.5C 215.531,164.632 187.031,183.299 170,219.5C 154.243,265.773 165.743,303.607 204.5,333C 219.956,343.281 236.956,348.114 255.5,347.5C 257.5,347.5 259.5,347.5 261.5,347.5C 259.735,348.461 257.735,348.795 255.5,348.5C 255.5,375.167 255.5,401.833 255.5,428.5C 249.804,428.553 244.138,428.22 238.5,427.5C 239.592,421.193 240.592,414.86 241.5,408.5C 241.167,407.5 240.833,406.5 240.5,405.5C 233.81,404.295 227.144,402.962 220.5,401.5C 217.884,408.523 216.551,415.856 216.5,423.5C 205.877,421.959 195.877,418.626 186.5,413.5C 189.578,407.009 192.912,400.675 196.5,394.5C 189.833,390.833 183.167,387.167 176.5,383.5C 173.079,389.342 169.912,395.342 167,401.5C 166.439,402.022 165.772,402.355 165,402.5C 156.566,397.069 148.399,391.236 140.5,385C 145.833,379.667 151.167,374.333 156.5,369C 151.5,364 146.5,359 141.5,354C 140.833,353.333 140.167,353.333 139.5,354C 135.134,358.701 130.467,363.034 125.5,367C 123.613,367.163 122.113,366.329 121,364.5C 115.972,357.638 111.138,350.638 106.5,343.5C 113.167,339.833 119.833,336.167 126.5,332.5C 122.833,325.833 119.167,319.167 115.5,312.5C 109.833,315.333 104.167,318.167 98.5,321C 97.365,321.749 96.365,321.583 95.5,320.5C 91.9571,311.489 88.9571,302.322 86.5,293C 93.7207,291.257 101.054,290.09 108.5,289.5C 108.017,282.089 107.017,274.756 105.5,267.5C 104.833,267.167 104.167,266.833 103.5,266.5C 96.5104,267.632 89.5104,268.632 82.5,269.5C 82.1681,259.145 82.5014,248.812 83.5,238.5C 90.7445,240.62 98.0778,241.287 105.5,240.5C 106.705,233.81 108.038,227.144 109.5,220.5C 102.339,218.306 95.0052,216.973 87.5,216.5C 89.0362,205.891 92.3696,195.891 97.5,186.5C 103.991,189.578 110.325,192.912 116.5,196.5C 120.167,189.833 123.833,183.167 127.5,176.5C 121.658,173.079 115.658,169.912 109.5,167C 108.978,166.439 108.645,165.772 108.5,165C 112.378,158.081 116.878,151.581 122,145.5C 123.422,143.362 125.255,142.195 127.5,142C 132.333,146.833 137.167,151.667 142,156.5C 147,151.5 152,146.5 157,141.5C 157.667,140.833 157.667,140.167 157,139.5C 152.299,135.134 147.966,130.467 144,125.5C 143.837,123.613 144.671,122.113 146.5,121C 153.362,115.972 160.362,111.138 167.5,106.5C 171.167,113.167 174.833,119.833 178.5,126.5C 185.167,122.833 191.833,119.167 198.5,115.5C 194.775,109.069 191.942,102.402 190,95.5C 198.71,91.7077 207.71,88.7077 217,86.5C 217.945,86.9054 218.612,87.572 219,88.5C 220.031,95.1521 220.865,101.819 221.5,108.5C 229.183,107.593 236.849,106.593 244.5,105.5C 243.582,97.8199 242.582,90.1533 241.5,82.5C 246.167,82.5 250.833,82.5 255.5,82.5 Z"/></g>
<g><path style="opacity:1" fill="#012631" d="M 255.5,82.5 C 261.245,82.2111 266.912,82.7111 272.5,84C 271.064,90.6097 269.731,97.2764 268.5,104C 268.645,104.772 268.978,105.439 269.5,106C 276.827,107.277 284.16,108.443 291.5,109.5C 292.501,102.164 293.501,94.8307 294.5,87.5C 304.969,89.4341 314.969,92.7674 324.5,97.5C 321.422,103.991 318.088,110.325 314.5,116.5C 320.846,120.674 327.512,124.341 334.5,127.5C 337.921,121.658 341.088,115.658 344,109.5C 344.561,108.978 345.228,108.645 346,108.5C 352.919,112.378 359.419,116.878 365.5,122C 367.638,123.422 368.805,125.255 369,127.5C 364.167,132.333 359.333,137.167 354.5,142C 359.5,147 364.5,152 369.5,157C 370.167,157.667 370.833,157.667 371.5,157C 375.866,152.299 380.533,147.966 385.5,144C 386.996,143.493 388.163,143.993 389,145.5C 394.413,152.658 399.579,159.991 404.5,167.5C 397.833,171.167 391.167,174.833 384.5,178.5C 388.197,185.233 391.863,191.9 395.5,198.5C 401.991,195.422 408.325,192.088 414.5,188.5C 419.025,197.741 422.358,207.408 424.5,217.5C 417.277,219.478 409.944,220.811 402.5,221.5C 403.418,229.177 404.418,236.844 405.5,244.5C 413.115,243.11 420.781,242.11 428.5,241.5C 428.638,251.854 428.305,262.188 427.5,272.5C 419.877,271.174 412.21,270.174 404.5,269.5C 403.935,276.224 402.935,282.891 401.5,289.5C 401.833,290.167 402.167,290.833 402.5,291.5C 409.385,293.259 416.385,294.259 423.5,294.5C 421.566,304.969 418.233,314.969 413.5,324.5C 407.009,321.422 400.675,318.088 394.5,314.5C 390.326,320.846 386.659,327.512 383.5,334.5C 389.342,337.921 395.342,341.088 401.5,344C 402.022,344.561 402.355,345.228 402.5,346C 398.622,352.919 394.122,359.419 389,365.5C 387.578,367.638 385.745,368.805 383.5,369C 378.667,364.167 373.833,359.333 369,354.5C 364,359.5 359,364.5 354,369.5C 353.333,370.167 353.333,370.833 354,371.5C 358.701,375.866 363.034,380.533 367,385.5C 367.507,386.996 367.007,388.163 365.5,389C 358.342,394.413 351.009,399.579 343.5,404.5C 339.833,397.833 336.167,391.167 332.5,384.5C 325.477,387.675 318.811,391.341 312.5,395.5C 315.578,401.991 318.912,408.325 322.5,414.5C 312.961,418.735 303.128,422.069 293,424.5C 291.506,417.209 290.34,409.876 289.5,402.5C 282.089,402.983 274.756,403.983 267.5,405.5C 267.167,406 266.833,406.5 266.5,407C 267.955,413.772 268.955,420.605 269.5,427.5C 264.87,428.229 260.203,428.563 255.5,428.5C 255.5,401.833 255.5,375.167 255.5,348.5C 257.735,348.795 259.735,348.461 261.5,347.5C 294.162,344.756 318.996,329.423 336,301.5C 357.62,256.941 350.453,217.774 314.5,184C 299.029,171.602 281.363,164.769 261.5,163.5C 259.735,162.539 257.735,162.205 255.5,162.5C 255.5,135.833 255.5,109.167 255.5,82.5 Z"/></g>
<g><path style="opacity:1" fill="#feaa37" d="M 404.5,128.5 C 405.239,128.369 405.906,128.536 406.5,129C 441.035,163.701 475.701,198.201 510.5,232.5C 510.833,232.5 511.167,232.5 511.5,232.5C 511.5,247.5 511.5,262.5 511.5,277.5C 499.018,377.805 447.018,449.305 355.5,492C 330.313,502.297 304.313,508.797 277.5,511.5C 262.5,511.5 247.5,511.5 232.5,511.5C 232.5,511.167 232.5,510.833 232.5,510.5C 198.535,476.035 164.368,441.701 130,407.5C 129.536,406.906 129.369,406.239 129.5,405.5C 165.936,435.649 207.936,450.983 255.5,451.5C 291.961,450.719 325.961,441.219 357.5,423C 408.354,390.444 438.854,344.278 449,284.5C 457.127,225.739 442.293,173.739 404.5,128.5 Z"/></g>
<g><path style="opacity:1" fill="#5be2fe" d="M 255.5,163.5 C 255.5,182.833 255.5,202.167 255.5,221.5C 234.504,223.162 223.171,234.496 221.5,255.5C 223.161,276.495 234.495,287.828 255.5,289.5C 255.5,308.833 255.5,328.167 255.5,347.5C 236.956,348.114 219.956,343.281 204.5,333C 165.743,303.607 154.243,265.773 170,219.5C 187.031,183.299 215.531,164.632 255.5,163.5 Z"/></g>
<g><path style="opacity:1" fill="#00cef9" d="M 255.5,163.5 C 257.5,163.5 259.5,163.5 261.5,163.5C 281.363,164.769 299.029,171.602 314.5,184C 350.453,217.774 357.62,256.941 336,301.5C 318.996,329.423 294.162,344.756 261.5,347.5C 259.5,347.5 257.5,347.5 255.5,347.5C 255.5,328.167 255.5,308.833 255.5,289.5C 276.732,287.768 288.065,276.268 289.5,255C 287.64,234.307 276.307,223.141 255.5,221.5C 255.5,202.167 255.5,182.833 255.5,163.5 Z"/></g>
<g><path style="opacity:1" fill="#fefeff" d="M 255.5,221.5 C 255.5,244.167 255.5,266.833 255.5,289.5C 234.495,287.828 223.161,276.495 221.5,255.5C 223.171,234.496 234.504,223.162 255.5,221.5 Z"/></g>
<g><path style="opacity:1" fill="#a9eefc" d="M 255.5,221.5 C 276.307,223.141 287.64,234.307 289.5,255C 288.065,276.268 276.732,287.768 255.5,289.5C 255.5,266.833 255.5,244.167 255.5,221.5 Z"/></g>
</svg>
